<?xml version="1.0" standalone="no"?>
<!DOCTYPE svg PUBLIC "-//W3C//DTD SVG 20010904//EN"
 "http://www.w3.org/TR/2001/REC-SVG-20010904/DTD/svg10.dtd">
<svg version="1.0" xmlns="http://www.w3.org/2000/svg"
 width="512.000000pt" height="512.000000pt" viewBox="0 0 512.000000 512.000000"
 preserveAspectRatio="xMidYMid meet">
<metadata>
Created by potrace 1.11, written by Peter Selinger 2001-2013
</metadata>
<g transform="translate(0.000000,512.000000) scale(0.100000,-0.100000)"
fill="#000000" stroke="none">
<path d="M2189 5036 c-2 -2 -74 -7 -159 -11 -85 -3 -173 -8 -195 -9 -97 -8
-222 -18 -250 -21 -16 -1 -59 -6 -95 -9 -208 -20 -223 -22 -335 -48 -460 -106
-837 -470 -964 -931 -11 -40 -22 -88 -25 -107 -9 -58 -25 -191 -31 -265 -4
-38 -8 -81 -10 -95 -2 -14 -7 -65 -10 -115 -4 -49 -8 -110 -10 -135 -27 -320
-27 -1117 0 -1465 20 -257 33 -395 51 -540 21 -168 101 -388 192 -529 90 -140
254 -309 366 -381 17 -10 40 -25 51 -32 52 -33 228 -114 296 -137 74 -24 197
-48 309 -60 30 -4 73 -8 95 -11 63 -7 153 -14 240 -20 44 -3 94 -8 111 -10
194 -27 1124 -27 1474 0 30 2 96 7 145 10 50 3 106 8 125 10 19 2 60 7 90 10
151 15 189 20 270 36 385 75 726 332 907 685 83 160 128 321 148 519 3 33 8
76 10 95 4 38 15 155 20 210 2 19 6 87 10 150 4 63 9 133 11 155 6 53 11 913
6 993 l-4 62 -79 0 c-68 0 -79 2 -80 18 0 9 -2 42 -3 72 -2 30 -6 94 -10 143
l-8 87 82 0 82 0 -6 53 c-3 28 -8 84 -11 122 -27 364 -63 523 -164 723 -106
210 -308 427 -493 531 -21 12 -53 29 -70 39 -91 51 -278 113 -378 127 -25 3
-52 8 -60 10 -8 2 -46 6 -85 10 -38 3 -81 8 -95 10 -14 2 -60 7 -102 10 -43 4
-90 8 -106 10 -15 2 -77 7 -137 10 -61 4 -137 9 -170 11 -76 6 -941 14 -946
10z m-433 -1679 c3 -3 7 -242 5 -300 -1 -16 -14 -17 -158 -15 l-158 3 -3 160
-2 160 156 -2 c86 -1 158 -4 160 -6z m4 -1340 c1 -34 2 -106 3 -160 l2 -97
-60 -1 c-61 0 -222 0 -352 1 l-72 0 0 160 0 159 239 0 240 0 0 -62z"/>
</g>
</svg>
